<svg width="40" height="40" viewBox="0 0 40 40" fill="none" xmlns="http://www.w3.org/2000/svg">
<path d="M19.9889 40C14.5253 40 13.8812 39.9712 11.749 39.878C10.0863 39.8235 8.44515 39.486 6.89617 38.88C5.57064 38.3649 4.36686 37.5802 3.36129 36.5757C2.35571 35.5712 1.57031 34.3688 1.05497 33.045C0.47153 31.4927 0.156841 29.8525 0.124375 28.1947C-1.65477e-08 26.0701 0 25.3737 0 19.9601C0 14.4888 0.0288728 13.8501 0.124375 11.7321C0.157552 10.0766 0.472229 8.4387 1.05497 6.88845C1.56972 5.56296 2.35565 4.35923 3.36256 3.35415C4.36947 2.34908 5.57523 1.56474 6.90283 1.05123C8.45451 0.466184 10.0952 0.151129 11.7535 0.11976C13.8745 -2.23071e-07 14.5719 0 19.9889 0C25.4969 0 26.1299 0.028831 28.2288 0.11976C29.8901 0.150809 31.538 0.465735 33.0927 1.05123C34.42 1.56533 35.6254 2.34988 36.6323 3.35488C37.6391 4.35989 38.4252 5.5633 38.9406 6.88845C39.5336 8.46307 39.8512 10.1264 39.8756 11.8053C40 13.9299 40 14.6241 40 20.0355C40 25.4469 39.9689 26.1566 39.8756 28.2568C39.8424 29.9162 39.527 31.5578 38.9428 33.1116C38.4261 34.4363 37.6393 35.6393 36.6322 36.6442C35.6251 37.6491 34.4198 38.4339 33.0927 38.9488C31.538 39.5298 29.8967 39.8448 28.2376 39.878C26.1166 40 25.4214 40 19.9889 40V40ZM19.9134 3.51076C14.4808 3.51076 13.9167 3.53737 11.7957 3.63273C10.5289 3.64927 9.2744 3.88256 8.08662 4.32247C7.22028 4.65406 6.43314 5.16325 5.77594 5.81721C5.11874 6.47117 4.60606 7.25539 4.27096 8.11932C3.82676 9.31692 3.59356 10.5833 3.58023 11.8607C3.46252 14.0098 3.46252 14.5731 3.46252 19.9601C3.46252 25.2828 3.48251 25.9281 3.58023 28.0639C3.60022 29.328 3.83343 30.5811 4.27096 31.7676C4.95058 33.513 6.33648 34.8924 8.08884 35.5622C9.27509 36.0049 10.5294 36.2383 11.7957 36.2519C13.9456 36.3761 14.5119 36.3761 19.9134 36.3761C25.3615 36.3761 25.9256 36.3495 28.0289 36.2519C29.2957 36.2366 30.5505 36.0033 31.7379 35.5622C32.5996 35.2281 33.3823 34.7186 34.0361 34.066C34.69 33.4135 35.2007 32.6323 35.5358 31.772C35.98 30.5744 36.2132 29.3058 36.2265 28.0284H36.251C36.3465 25.9082 36.3465 25.3427 36.3465 19.9246C36.3465 14.5065 36.322 13.9366 36.2265 11.8186C36.2065 10.5555 35.9729 9.30479 35.5358 8.11932C35.2015 7.25781 34.6911 6.47528 34.0372 5.82158C33.3833 5.16788 32.6003 4.65733 31.7379 4.32247C30.5497 3.87891 29.2948 3.64826 28.0289 3.63273C25.8812 3.51076 25.3193 3.51076 19.9134 3.51076V3.51076ZM19.9889 30.204C17.958 30.2054 15.9723 29.6052 14.2829 28.4795C12.5936 27.3538 11.2765 25.7531 10.4983 23.8799C9.72009 22.0067 9.51567 19.9451 9.91092 17.9559C10.3062 15.9666 11.2833 14.1391 12.7188 12.7045C14.1542 11.2699 15.9835 10.2925 17.9753 9.89615C19.9671 9.49975 22.0318 9.70208 23.9084 10.4776C25.785 11.253 27.3891 12.5668 28.5179 14.2527C29.6467 15.9387 30.2494 17.921 30.2499 19.949C30.2463 22.6662 29.1644 25.2712 27.2411 27.1934C25.3179 29.1156 22.71 30.1982 19.9889 30.204V30.204ZM19.9889 13.2912C18.6711 13.2912 17.3829 13.6814 16.2872 14.4125C15.1914 15.1436 14.3374 16.1827 13.8331 17.3984C13.3288 18.6142 13.1969 19.9519 13.454 21.2426C13.711 22.5332 14.3456 23.7187 15.2775 24.6492C16.2093 25.5797 17.3965 26.2134 18.689 26.4701C19.9815 26.7268 21.3212 26.595 22.5387 26.0915C23.7562 25.5879 24.7968 24.7351 25.5289 23.641C26.2611 22.5468 26.6519 21.2605 26.6519 19.9446C26.6478 18.1812 25.9444 16.4913 24.6958 15.2445C23.4471 13.9976 21.7548 13.2953 19.9889 13.2912ZM30.6496 11.7099C30.3352 11.7087 30.0241 11.6458 29.7341 11.5245C29.4441 11.4033 29.1808 11.2262 28.9593 11.0034C28.5119 10.5534 28.2619 9.94434 28.2643 9.31027C28.2667 8.6762 28.5212 8.06903 28.9718 7.62233C29.4225 7.17564 30.0324 6.92601 30.6674 6.92837C31.3024 6.93072 31.9104 7.18486 32.3578 7.63488C32.8051 8.0849 33.0551 8.69394 33.0528 9.32801C33.0504 9.96208 32.7959 10.5693 32.3452 11.0159C31.8945 11.4626 31.2846 11.7123 30.6496 11.7099Z" fill="#120202"/>
</svg>
