<?xml version="1.0" standalone="no"?>
<!DOCTYPE svg PUBLIC "-//W3C//DTD SVG 20010904//EN"
 "http://www.w3.org/TR/2001/REC-SVG-20010904/DTD/svg10.dtd">
<svg version="1.0" xmlns="http://www.w3.org/2000/svg"
 width="110.000000pt" height="107.000000pt" viewBox="0 0 1060.000000 1280.000000"
 preserveAspectRatio="xMidYMid meet">
<metadata>
Created by potrace 1.15, written by Peter Selinger 2001-2017
</metadata>
<g transform="translate(0.000000,1280.000000) scale(0.100000,-0.100000)"
fill="#ff9800" stroke="none">
<path d="M10000 12785 c-132 -37 -294 -133 -449 -268 -82 -72 -92 -86 -166
-219 -462 -839 -806 -1761 -939 -2518 -38 -213 -54 -364 -71 -655 -27 -459
-64 -732 -136 -1013 -180 -696 -534 -1067 -1121 -1173 -306 -55 -459 -146
-664 -396 -47 -57 -89 -103 -93 -103 -17 0 -138 -152 -216 -270 -289 -440
-704 -1353 -1106 -2435 -49 -132 -94 -250 -99 -262 -11 -25 2 -40 41 -45 l26
-3 -108 -295 c-60 -162 -125 -337 -146 -388 l-36 -94 -81 -54 c-106 -71 -236
-189 -448 -408 -235 -243 -463 -467 -578 -566 -626 -541 -1332 -847 -2180
-944 -183 -21 -491 -37 -685 -35 l-160 1 -80 -35 c-265 -115 -395 -188 -461
-259 -28 -30 -44 -56 -44 -73 0 -29 30 -62 62 -69 50 -11 1933 -92 3023 -130
385 -14 774 -28 865 -31 509 -18 1374 -36 2010 -41 1162 -10 1764 19 1915 91
155 75 515 530 807 1020 203 342 384 721 445 936 15 51 23 64 46 73 15 6 27
15 27 21 0 6 29 211 64 455 46 318 70 456 84 485 57 115 133 440 392 1660 67
314 125 561 159 675 30 99 59 276 86 515 8 77 20 185 26 239 14 119 6 216 -23
293 -44 119 -96 175 -213 228 -192 88 -337 237 -435 448 -67 144 -90 288 -70
422 16 105 40 167 118 305 320 563 751 1701 982 2594 159 614 224 1027 224
1426 0 265 -11 354 -69 527 -84 250 -209 372 -393 380 -48 2 -98 -3 -132 -12z"/>
</g>
</svg>
